<svg fill="currentColor" viewBox="0 0 512 512.0002" xmlns="http://www.w3.org/2000/svg"><path d="m285.996094 301.003906c-11.699219 0-22.199219 4.5-30 11.699219-7.800782-7.203125-18.300782-11.699219-30-11.699219h-30c-24.898438 0-45 21.097656-45 46v30c0 24.597656 11.703125 46.195313 30 59.996094 0-26.699219 14.398437-51.597656 37.5-65.097656 7.199218-4.199219 16.199218-1.5 20.402344 5.699218 4.199218 7.203126 1.796874 16.199219-5.402344 20.402344-13.800782 8.097656-22.5 23.097656-22.5 39 0 4.796875.902344 9.597656 2.402344 13.796875 4.199218.902344 8.398437 1.203125 12.597656 1.203125h60c4.199218 0 8.402344-.300781 12.597656-1.203125 1.5-4.199219 2.402344-9 2.402344-13.796875 0-15.902344-8.699219-30.902344-22.5-39-7.199219-4.199218-9.601563-13.199218-5.398438-20.402344 3.898438-7.199218 13.199219-9.898437 20.398438-5.699218 23.101562 13.5 37.5 38.398437 37.5 65.097656 18.300781-13.800781 30-35.398438 30-59.996094v-30c0-24.902344-20.101563-46-45-46zm0 0"/><path d="m255.996094 482c-20.097656 0-36.898438-13.199219-42.597656-31.199219-12-1.800781-23.101563-6.898437-32.402344-13.800781 0 41.402344 33.601562 75 75 75 41.398437 0 75-33.597656 75-75-9.300782 6.898438-20.398438 12-32.402344 13.800781-5.699219 18-22.496094 31.199219-42.597656 31.199219zm0 0"/><path d="m502.734375 1.148438c-5.59375-2.34375-12.039063-1.023438-16.347656 3.253906-16.273438 16.273437-39.800781 25.601562-62.8125 25.601562h-32.578125v60h89.25c19.53125-19.078125 31.746094-45.605468 31.746094-74.996094 0-6.066406-3.644532-11.542968-9.257813-13.859374zm0 0"/><path d="m121 90.007812v-60h-32.578125c-23.011719 0-46.542969-9.332031-62.816406-25.605468-4.277344-4.277344-10.707031-5.566406-16.347657-3.253906-5.609374 2.316406-9.257812 7.792968-9.257812 13.859374 0 29.390626 12.21875 55.917969 31.75 74.996094h89.25zm0 0"/><path d="m510.292969 120.003906h-134.296875c-8.285156 0-15-6.714844-15-15v-74.996094h-32.578125c-26.175781 0-51.882813 8.992188-72.421875 25.019532-20.535156-16.027344-46.242188-25.019532-72.421875-25.019532h-32.578125v74.996094c0 8.285156-6.714844 15-14.996094 15h-134.300781c8.925781 50.324219 58.75 80.417969 105.253906 68.722656l30.863281-7.722656h24.503906c30.117188 16.421875 48.679688 47.5625 48.679688 82.074219v7.925781h14.996094c10.460937 0 20.65625 2.167969 30 6.296875 9.347656-4.128906 19.542968-6.296875 30-6.296875h15v-7.925781c0-34.511719 18.5625-65.652344 48.675781-82.074219h24.507813l30.863281 7.722656c46.996093 11.820313 96.410156-18.867187 105.25-68.722656zm0 0"/><path d="m345.996094 241.003906c-3.597656 0-6.765625-1.4375-9.347656-3.546875-3.46875 7.914063-5.652344 16.484375-5.652344 25.621094v10.085937c22.5 4.710938 41.40625 19.078126 51.59375 39.070313 13.285156-29.648437 19.484375-61.667969 18.109375-93.859375-13.328125-2.988281-16.996094-4.140625-30.210938-7.371094h-12.40625c-1.289062.890625-2.25 2.085938-3.457031 3.058594 3.761719 2.726562 6.371094 6.9375 6.371094 11.941406 0 8.28125-6.71875 15-15 15zm0 0"/><path d="m153.914062 211.003906h-12.40625c-12.980468 3.175782-17.132812 4.445313-30.214843 7.375-1.375 32.1875 4.824219 64.207032 18.109375 93.855469 10.1875-19.992187 29.09375-34.359375 51.59375-39.070313v-10.085937c0-9.136719-2.183594-17.707031-5.648438-25.621094-2.585937 2.109375-5.753906 3.546875-9.351562 3.546875-8.28125 0-15-6.714844-15-15 0-5 2.609375-9.214844 6.371094-11.941406-1.207032-.972656-2.164063-2.167969-3.453126-3.058594zm0 0"/></svg>
