<svg fill="currentColor" viewBox="0 0 64 64" xmlns="http://www.w3.org/2000/svg"><path d="m10.099 24.98c.457 2.289 2.48 4.02 4.901 4.02h3c1.302 0 2.402.839 2.816 2h-7.816c-.553 0-1 .448-1 1v5c0 .301.136.586.369.776l15.631 12.7v10.524c0 .369.203.708.528.882.148.079.31.118.472.118.194 0 .388-.057.555-.168l6-4c.278-.186.445-.498.445-.832v-6.524l15.631-12.7c.233-.19.369-.475.369-.776v-5c0-.552-.447-1-1-1h-7.816c.414-1.161 1.514-2 2.816-2h3c2.421 0 4.444-1.731 4.901-4.02 4.159-.171 8.099-1.531 8.099-3.98v-15c0-2.626-4.527-4-9-4s-9 1.374-9 4v15c0 2.396 3.769 3.746 7.827 3.965-.404 1.179-1.512 2.035-2.827 2.035h-3c-2.414 0-4.434 1.721-4.899 4h-8.101v-6.025c4.123-.189 8-1.545 8-3.975v-15c0-2.626-4.527-4-9-4s-9 1.374-9 4v15c0 2.43 3.877 3.785 8 3.975v6.025h-8.101c-.465-2.279-2.484-4-4.899-4h-3c-1.315 0-2.423-.856-2.827-2.035 4.058-.219 7.827-1.569 7.827-3.965v-15c0-2.626-4.527-4-9-4s-9 1.374-9 4v15c0 2.449 3.94 3.809 8.099 3.98zm42.901-20.98c4.547 0 7 1.419 7 2s-2.453 2-7 2-7-1.419-7-2 2.453-2 7-2zm-7 4.6c1.736.923 4.374 1.4 7 1.4s5.264-.477 7-1.4v2.4c0 .581-2.453 2-7 2s-7-1.419-7-2zm0 5c1.736.923 4.374 1.4 7 1.4s5.264-.477 7-1.4v2.4c0 .581-2.453 2-7 2s-7-1.419-7-2zm0 7.4v-2.4c1.736.923 4.374 1.4 7 1.4s5.264-.477 7-1.4v2.4c0 .581-2.453 2-7 2s-7-1.419-7-2zm-14-17c4.547 0 7 1.419 7 2s-2.453 2-7 2-7-1.419-7-2 2.453-2 7-2zm-7 4.6c1.736.923 4.374 1.4 7 1.4s5.264-.477 7-1.4v2.4c0 .581-2.453 2-7 2s-7-1.419-7-2zm0 5c1.736.923 4.374 1.4 7 1.4s5.264-.477 7-1.4v2.4c0 .581-2.453 2-7 2s-7-1.419-7-2zm0 7.4v-2.4c1.736.923 4.374 1.4 7 1.4s5.264-.477 7-1.4v2.4c0 .581-2.453 2-7 2s-7-1.419-7-2zm25 15h-19v2h17.183l-13.814 11.224c-.233.19-.369.475-.369.776v6.465l-4 2.667v-9.132c0-.301-.136-.586-.369-.776l-15.631-12.7v-3.524h36zm-39-13c-4.547 0-7-1.419-7-2v-2.4c1.736.923 4.374 1.4 7 1.4s5.264-.477 7-1.4v2.4c0 .581-2.453 2-7 2zm0-19c4.547 0 7 1.419 7 2s-2.453 2-7 2-7-1.419-7-2 2.453-2 7-2zm-7 4.6c1.736.923 4.374 1.4 7 1.4s5.264-.477 7-1.4v2.4c0 .581-2.453 2-7 2s-7-1.419-7-2zm0 5c1.736.923 4.374 1.4 7 1.4s5.264-.477 7-1.4v2.4c0 .581-2.453 2-7 2s-7-1.419-7-2z"/><path d="m27 36h2v2h-2z"/><path d="m23 36h2v2h-2z"/><path d="m19 36h2v2h-2z"/></svg>
