<svg fill="currentColor" viewBox="0 0 512 511" xmlns="http://www.w3.org/2000/svg"><path d="m512 15.5c0-6.066406-3.65625-11.539062-9.261719-13.859375s-12.054687-1.035156-16.34375 3.253906c-16.511719 16.511719-38.46875 25.605469-61.820312 25.605469-11.8125 0-84.617188 0-96.148438 0-26.59375 0-51.839843 8.78125-72.425781 24.972656-20.585938-16.191406-45.832031-24.972656-72.425781-24.972656-11.535157 0-84.332031 0-96.148438 0-23.351562 0-45.304687-9.09375-61.820312-25.605469-4.289063-4.289062-10.742188-5.574219-16.34375-3.253906-5.605469 2.324219-9.261719 7.792969-9.261719 13.859375 0 29.355469 12.226562 55.925781 31.898438 75h-16.898438c-8.285156 0-15 6.714844-15 15 0 26.511719 12.179688 51.222656 33.414062 67.804688 20.71875 16.175781 47.441407 22.441406 73.535157 15.917968l8.128906-2.03125c-18.960937 96.128906 34.605469 161.722656 35.921875 164.851563v25.457031c0 24.484375 11.796875 46.261719 30 59.957031v.042969c0 41.355469 33.644531 75 75 75s75-33.644531 75-75c0-.015625 0-.027344 0-.042969 18.203125-13.695312 30-35.472656 30-59.957031v-25.457031c1.335938-3.175781 54.960938-68.324219 35.921875-164.851563l8.128906 2.035156c53.59375 13.394532 106.949219-27.996093 106.949219-83.726562 0-8.285156-6.714844-15-15-15h-16.898438c19.671876-19.070312 31.898438-45.644531 31.898438-75zm-473.539062 34.371094c15.164062 6.960937 31.785156 10.628906 48.964843 10.628906h33.574219v30h-15c-29.359375 0-54.886719-16.515625-67.539062-40.628906zm108.695312 131.628906h15.15625c29.683594 16.28125 48.6875 48.515625 48.6875 83.082031v37.917969h-15c-12.613281 0-24.023438 5.222656-32.203125 13.613281-22.644531-40.679687-28.714844-89.449219-16.640625-134.613281zm108.84375 301c-19.96875 0-36.929688-13.078125-42.796875-31.113281 4.160156.71875 8.433594 1.113281 12.796875 1.113281h60c4.363281 0 8.636719-.394531 12.796875-1.113281-5.867187 18.035156-22.828125 31.113281-42.796875 31.113281zm75-105c0 9.644531-3.058594 18.578125-8.242188 25.914062-6.488281-12.691406-16.539062-23.519531-29.246093-30.871093-7.171875-4.148438-16.347657-1.699219-20.496094 5.472656s-1.699219 16.347656 5.472656 20.496094c8.894531 5.144531 15.613281 13.128906 19.308594 22.410156-3.761719 1.023437-7.714844 1.578125-11.796875 1.578125h-60c-4.082031 0-8.035156-.554688-11.796875-1.578125 3.695313-9.28125 10.414063-17.265625 19.308594-22.410156 7.171875-4.148438 9.621093-13.324219 5.472656-20.496094-4.148437-7.167969-13.324219-9.621094-20.496094-5.472656-12.703125 7.351562-22.757812 18.179687-29.246093 30.871093-5.183594-7.335937-8.242188-16.269531-8.242188-25.914062v-30c0-8.269531 6.730469-15 15-15h30c8.269531 0 15 6.730469 15 15 0 8.285156 6.714844 15 15 15s15-6.714844 15-15c0-8.269531 6.730469-15 15-15h30c8.269531 0 15 6.730469 15 15zm17.203125-61.386719c-8.179687-8.390625-19.589844-13.613281-32.203125-13.613281h-15v-37.917969c0-34.566406 19.003906-66.800781 48.6875-83.082031h15.15625c12.074219 45.164062 6.003906 93.933594-16.640625 134.613281zm131.722656-195.613281c-7.867187 27.800781-37.453125 47.15625-67.601562 39.621094-30.9375-7.421875-32.476563-8.621094-36.324219-8.621094h-30c-2.328125 0-4.625.542969-6.707031 1.582031-41.488281 20.746094-68.292969 64.511719-68.292969 111.5v40.496094c-5.585938 1.984375-10.671875 5.035156-15 8.917969-4.328125-3.882813-9.414062-6.933594-15-8.917969v-40.496094c0-46.988281-26.804688-90.757812-68.292969-111.5-2.082031-1.039062-4.378906-1.582031-6.707031-1.582031 0 0-29.726562 0-29.746094 0-4.660156.125-1.542968.222656-36.578125 8.621094-16.5625 4.140625-33.984375.324218-47.800781-10.464844-9.753906-7.613281-16.589844-17.808594-19.800781-29.15625h103.925781c8.285156 0 15-6.714844 15-15v-45h32.574219c23.351562 0 45.308593 9.09375 61.820312 25.605469 5.855469 5.859375 15.355469 5.859375 21.210938 0 16.511719-16.511719 38.46875-25.605469 61.820312-25.605469h32.574219v45c0 8.285156 6.714844 15 15 15zm-88.925781-30v-30h33.574219c17.183593 0 33.800781-3.667969 48.964843-10.628906-12.652343 24.113281-38.179687 40.628906-67.539062 40.628906zm0 0"/><path d="m361 227.5c0 8.285156-6.714844 15-15 15s-15-6.714844-15-15 6.714844-15 15-15 15 6.714844 15 15zm0 0"/><path d="m181 227.5c0 8.285156-6.714844 15-15 15s-15-6.714844-15-15 6.714844-15 15-15 15 6.714844 15 15zm0 0"/></svg>
