<svg fill="currentColor" viewBox="0 0 512 512" xmlns="http://www.w3.org/2000/svg"><path d="m384 24a112 112 0 1 0 112 112 112.127 112.127 0 0 0 -112-112zm0 208a96 96 0 1 1 96-96 96.108 96.108 0 0 1 -96 96z"/><path d="m419.845 72.229a32.005 32.005 0 0 0 -50.5-6.833 32.018 32.018 0 0 0 -40.845 36.271 24.006 24.006 0 0 0 15.5 42.333 23.678 23.678 0 0 0 2.663-.151 32.059 32.059 0 0 0 27 7.65 23.934 23.934 0 0 0 18.337 8.501v40a8 8 0 0 0 8 8h16a8 8 0 0 0 7.845-6.431l10.371-51.854a23.971 23.971 0 0 0 11.064-32.789 32.017 32.017 0 0 0 -25.435-44.7zm10.117 50.463a7.88 7.88 0 0 1 2.038 5.308 8.024 8.024 0 0 1 -6.358 7.831 8 8 0 0 0 -6.219 6.264l-9.982 49.905h-1.441v-42.158a8 8 0 0 0 -12.012-6.922 7.853 7.853 0 0 1 -3.988 1.08 7.988 7.988 0 0 1 -7.386-4.925 8 8 0 0 0 -10.463-4.3 15.921 15.921 0 0 1 -13.883-.791 8.007 8.007 0 0 1 7.732-5.984v-16a24.04 24.04 0 0 0 -22.577 15.862 7.733 7.733 0 0 1 -1.423.138 8 8 0 0 1 -3.075-15.386 8 8 0 0 0 4.3-10.463 16.007 16.007 0 0 1 14.775-22.151 24.028 24.028 0 0 0 24 24v-16a8.009 8.009 0 0 1 -7.8-6.253 7.953 7.953 0 0 0 2.315-2.348 16 16 0 0 1 28.585 3.294 7.993 7.993 0 0 0 8 5.335c.3-.016.6-.028.906-.028a16 16 0 0 1 13.294 24.906 8 8 0 0 0 .662 9.786z"/><path d="m408 112h-16a24.028 24.028 0 0 0 24 24v-16a8.009 8.009 0 0 1 -8-8z"/><path d="m224 272h16v16h-16z"/><path d="m224 80h16v16h-16z"/><path d="m224 144h16v16h-16z"/><path d="m224 112h16v16h-16z"/><path d="m224 176h16v16h-16z"/><path d="m224 48h16v16h-16z"/><path d="m224 16h16v16h-16z"/><path d="m224 208h16v16h-16z"/><path d="m224 464h16v16h-16z"/><path d="m224 432h16v16h-16z"/><path d="m224 400h16v16h-16z"/><path d="m224 240h16v16h-16z"/><path d="m224 368h16v16h-16z"/><path d="m175.519 285.266a8 8 0 0 0 -15.038 0l-56.414 155.134-32.533-91.09a8 8 0 0 0 -14.817-.621l-40 88 14.566 6.622 31.826-70.019 33.357 93.4a8 8 0 0 0 7.511 5.31h.023a8 8 0 0 0 7.519-5.266l56.481-155.327 24.481 67.325a8 8 0 0 0 14.175 1.7l14.817-22.226a32.068 32.068 0 1 0 -13.305-8.886l-6.054 9.08zm56.481 26.734a16 16 0 1 1 -16 16 16.019 16.019 0 0 1 16-16z"/><path d="m371.913 386.452h16.001v16.001h-16.001z" transform="matrix(.857 -.514 .514 .857 -148.804 251.676)"/><path d="m453.997 426.496h16.001v16h-16.001z" transform="matrix(.868 -.496 .496 .868 -154.702 286.477)"/><path d="m320.847 356.046h16v16h-16z" transform="matrix(.96 -.28 .28 .96 -88.785 106.648)"/><path d="m438.12 398.711h16.001v16h-16.001z" transform="matrix(.868 -.496 .496 .868 -143.009 274.938)"/><path d="m469.873 454.279h16v16.001h-16z" transform="matrix(.868 -.496 .496 .868 -166.39 297.995)"/><path d="m293.967 263.886h16v16h-16z" transform="matrix(.96 -.28 .28 .96 -64.053 95.434)"/><path d="m242.964 284.781h16v16h-16z" transform="matrix(.474 -.88 .88 .474 -125.804 374.937)"/><path d="m292.027 233.118-13.971-7.523-7.586 14.087 14.088 7.586 1.229-2.284 1.78 6.102 15.36-4.481-4.481-15.359z"/><path d="m311.887 325.326h16v16h-16z" transform="matrix(.96 -.28 .28 .96 -80.545 102.917)"/><path d="m258.136 256.606h15.999v16h-15.999z" transform="matrix(.474 -.88 .88 .474 -93.018 373.478)"/><path d="m302.927 294.606h16v16h-16z" transform="matrix(.96 -.28 .28 .96 -72.297 99.172)"/><path d="m422.245 370.927h16v16.001h-16z" transform="matrix(.868 -.496 .496 .868 -131.312 263.383)"/><path d="m399.353 369.989h16v15.999h-16z" transform="matrix(.857 -.515 .515 .857 -136.43 263.482)"/><path d="m329.807 386.766h16v16h-16z" transform="matrix(.96 -.28 .28 .96 -97.028 110.386)"/><path d="m344.473 402.916h16v15.999h-16z" transform="matrix(.857 -.515 .515 .857 -161.195 239.937)"/></svg>
